<svg xmlns="http://www.w3.org/2000/svg">
<defs>
<symbol id="s2v-logo" viewBox="0 0 160 160"><circle cx="75.25" cy="72.75" r="64.58" fill="#242a40"/><path fill="#458fff" d="M143.69 21.16q0 1.04-.12 2.04s-4.59 27.94-7.58 45.96c-.5 3.03-1.46 9.4-1.66 10.01v.02a7.06 7.06 0 0 1-9.48 4.27 6.8 6.8 0 0 1-4.18-6.39v-.08c0-.38.21-3.16.22-4.18a48 48 0 0 0-.25-4.82 44 44 0 0 0-1.58-8.09 45.7 45.7 0 0 0-38.68-32.5 47 47 0 0 0-5.07-.29c-.84 0-4.1.21-4.19.19a7 7 0 0 1-1.68-13.74c.46-.14 6.66-1.18 9.68-1.72 18.25-3.24 44.55-7.88 44.55-7.88a17.3 17.3 0 0 1 11.74 2.35 17.4 17.4 0 0 1 8.29 14.83Z"/><path fill="#385283" d="M132.81 87.2q-.22.88-.46 1.75a58 58 0 0 1-3.85 9.98c-.68 1.27-2.45 4.5-3.65 6.42a60 60 0 0 1-10.27 11.84s6.76 18.06 7.05 19.22q.5 1.94.5 4.05a16.6 16.6 0 0 1-16.66 16.61 16.6 16.6 0 0 1-13.92-7.56c-.37-.55-10.13-17.74-10.13-17.74q-4.34.46-8.84.26c-29.95-1.32-54.48-25.23-56.5-55.13a59.2 59.2 0 0 1 20.11-48.78 56 56 0 0 1 8.23-6.05 58 58 0 0 1 16.79-6.97 11.42 11.42 0 0 0 2.33 13.52c-4.7 1.15-12.04 3.47-18.94 10.35-9.78 9.76-16.33 23.06-14.72 38.42 2.35 22.4 20.95 40.03 43.46 40.95l.43.01a45.5 45.5 0 0 0 39.4-20.18c1.43-2.08 4.97-8.87 6.06-13.09l.08-.33a11.4 11.4 0 0 0 13.53 2.45Z"/><path fill="#edf3fc" d="M95.73 68.92q5.22 2.91 7.4 9.5a20 20 0 0 1 .33 11.94 23 23 0 0 1-6.4 10.5 29 29 0 0 1-11.44 6.71A28 28 0 0 1 72 108.65a24 24 0 0 1-11.36-5.05c-2.46-2-4.34-4.73-5.5-6.92a8 8 0 0 1-.79-1.99 7.5 7.5 0 0 1 4.93-8.87 7.3 7.3 0 0 1 7.31 1.74l.11.12c.46.47 1.38 1.88 1.46 2.02a12.4 12.4 0 0 0 5.41 4.72q3.49 1.63 7.91.21c4.42-1.42 5.04-2.47 6.5-4.66a8 8 0 0 0 .91-7.22q-.9-2.77-3.51-3.34c-1.74-.38-10.38-.46-10.94-.46-.45 0-8.67.03-11.77-.26A25 25 0 0 1 52.6 75.3q-5.1-2.91-7.08-9.41a19 19 0 0 1-.02-11.59 23 23 0 0 1 6.41-10.04q4.63-4.35 11.11-6.41c6.48-2.06 8.91-1.83 13.17-1.14a24 24 0 0 1 11.11 4.67 22 22 0 0 1 5.51 6.58 9 9 0 0 1 .82 1.92 7.16 7.16 0 0 1-4.77 8.65c-2.63.84-5.4.11-7.28-1.67l-.11-.12a18 18 0 0 1-1.46-1.96q-1.92-3-5.34-4.54-3.41-1.53-7.74-.16c-4.33 1.37-4.94 2.4-6.39 4.52a7.7 7.7 0 0 0-.98 7.02q.86 2.7 3.42 3.27c1.71.37 10.28.44 10.84.43.45 0 8.64-.05 11.74.23q4.96.45 10.17 3.36Z"/><path fill="#242a40" d="M137.85 33.08c.21.71.26 1.89-.03 2.48a2.3 2.3 0 0 1-1.44 1.23l-14.56 4.05c-4.59.83-6.59-2.59-5.54-5.66s9.05-15.2 9.55-15.77 1.03-1.54.78-2.4a3.8 3.8 0 0 0-2.08-2.54 4.6 4.6 0 0 0-3.33-.2 4.2 4.2 0 0 0-2.64 1.98 6 6 0 0 0-.72 3.12c0 .07.02.84-.02 1.14l-.01.07a3.1 3.1 0 0 1-2.11 2.47c-1.56.45-3.22-.55-3.79-2.25l-.07-.21a11.23 11.23 0 0 1 .16-4.72 10.72 10.72 0 0 1 7.53-7.41q2.76-.8 5.43-.22 2.69.57 4.71 2.38a10 10 0 0 1 2.86 4.59c.62 2.04.64 4.09-.05 5.7s-8.63 12.3-8.45 12.91l10.66-2.94c.79-.23 1.62 0 2.24.55a4 4 0 0 1 .93 1.62Z"/></symbol>
<symbol id="search" viewBox="0 0 16 16" fill="currentColor"><path d="M10.68 11.74a6 6 0 0 1-7.922-8.982 6 6 0 0 1 8.982 7.922l3.04 3.04a.749.749 0 0 1-.326 1.275.749.749 0 0 1-.734-.215ZM11.5 7a4.499 4.499 0 1 0-8.997 0A4.499 4.499 0 0 0 11.5 7Z"/></symbol>

<symbol id="game-cs2" viewBox="0 0 32 32"><path fill="#28397e" d="M0 0h32v32H0z"/><path fill="#faac19" d="m17 22-3 10H.02L0 0h17l-4 15 4 7Z"/><path fill="#f2efef" d="M15.21.52c-.16.16-.29.35-.4.55l-.13.3-.06.32.07 1.34s.02.1.06.13l.47.2-.27.45s-.04.05-.07.05c0 0-.56.01-.83.03-.5.02-1.65.67-2.49 2.52l-.96 2.13c-.02.03-.05.06-.09.05h-.77s-.1.04-.12.09l-1.2 3.48s0 .1.03.15l.83.54s.03.05.03.08l-.44 1.32-.03.08-.57.53-.04.05-.01.03-.8 2.1s-.03.05-.07.05H6.9c-.11 0-.2.1-.21.2l-.26 3.13a.9.9 0 0 1-.02.16l-.22 1.25-.04.07-.74.59c-.33.33-.72.53-1 1.36L2.2 28.98a.96.96 0 0 0-.1.44l-.1.56c0 .11.16.28.1.38L1.2 32H4.3l.12-1.51.1-.32 4.42-5.74c.13-.16.3-.44.38-.62l2.27-5.18c.04-.06.08-.1.14-.12l.14-.05c.09-.03.18 0 .24.07.2.24.67 1.07.89 1.4.2.29 1.12 1.69 1.54 2.15.1.13.46.27.62.36.05.04.07.1.04.16l-1.37 2.47-.55 2.87a1.5 1.5 0 0 0-.05.2l-.6 2.1c0 .25-.18.39-.2.68l-.14 1.07h5.27c.08-.1.14-.22.16-.35v-.1a.2.2 0 0 0-.02-.08v-.03a.14.14 0 0 0-.05-.04l-.03-.01-1.56-.49a.46.46 0 0 1-.26-.18l-.42-.64s-.01-.1.02-.13l.82-.83s.05-.06.06-.1l2.52-6.14c.12-.4.08-.83 0-1.3-.07-.34-.91-1.8-1.14-2.22l-1.7-3.08a.37.37 0 0 0-.13-.15c-.04-.03-.08-.06-.1-.1a.32.32 0 0 1-.07-.13l-.1-1.53s.02-.07.06-.07l.43-.04s.09-.03.1-.07l1.52-2.94s.02-.1 0-.13l-.31-.4s-.02-.08 0-.12l.46-.52s.07-.05.1-.03l1.24.72c.07.04.16.07.24.07.35 0 .91-.21 1.2-.4a.5.5 0 0 0 .19-.2l.54-1.32c.03-.06.12-.05.13.01l.14.67c0 .05.05.08.1.07l1.79-.42s.08-.06.07-.1l-.43-1.85.01-.07.18-.28.05-.11.21-1s.03-.03.05-.03h4.94c.07 0 .12-.06.12-.13V4.8s0-.03.03-.03h1.9s.06-.03.06-.06v-.4s-.03-.05-.06-.05h-1.9s-.03-.01-.03-.03v-.58c0-.1-.07-.18-.15-.18-.05 0-.1.03-.13.07 0 .02-.19.3-.3.45L28.1 4h-8.67s-.06-.03-.06-.06l-.02-.24s.03-.07.07-.06l.45.04s.07-.02.08-.06l.32-1.35s0-.07-.04-.08l-.3-.1s-.03-.03-.03-.05A2.95 2.95 0 0 0 17.76 0h-1.78a2.5 2.5 0 0 0-.82.54l.05-.02Z"/></symbol>
<symbol id="game-deadlock" viewBox="0 0 32 32"><path fill="#262324" d="M0 0h32v32H0z"/><path fill="#f0dfbf" d="M20.11 22.52c.4-.07.72.39 1.04.64 1.23.98 2.22 2.18 3.56 3.04.22.14.8.18 1 .41.2.25.24.6.43.87.13.19.56.18.35.52-.03.05-.12.03-.17.07-.67.48-1.3 1.03-2 1.47a17.6 17.6 0 0 1-6.94 2.37c-.6.09-.61-.1-.59-.7.06-1.57-.06-1.55.14-3.12.14-1.04.08-1.64.08-2.82 0-.6-.25-1.25 0-1.79.13-.27.6-.06.9-.13.5-.12 1-.28 1.48-.46.25-.1.45-.32.72-.37Zm-6.52 9.27c-3.08-.7-5.97-1.77-8.31-3.97-.14-.14-.1-.27.04-.4.25-.22.54-.39.8-.6 1.38-1.14 2.75-2.3 4.11-3.46.13-.11.7-.8.97-.76 1.1.18 2.68.06 3.18 1.06.08.16.01.64.02.73.19 1.89.33 3.77.53 5.66.07.71.07.7-.08 1.39-.03.15.1.38-.02.47-.34.24-.84-.24-1.24-.12Zm.9-23.7c-.11.15-.75.12-.87.15-.57.16-1.14.36-1.7.57-.19.07-.55.38-.8.26-.23-.11-.36-.36-.55-.53C8.9 7.12 8.42 6.88 6.83 5.36c-.11-.1-.14-.28-.26-.38-.3-.24-1.3-.5-1-1.15.02-.07.12-.05.18-.1.66-.44 1.26-.97 1.95-1.38A15.12 15.12 0 0 1 12.1.57c.77-.18 1.57-.22 2.36-.35.21-.03.34-.23.46.03.08.19.04.64.03.78-.13 2.1-.3 4.19-.42 6.28-.02.27.12.56 0 .8h-.02l-.01-.01Zm7.06-6.89c.14-.15.4.1.58.19.22.1.43.24.64.37l1.58.95c.5.31.97.66 1.48.95.13.07.3.07.42.15.48.24-.9 1.11-1.01 1.21-.35.33-2.46 2.03-2.92 2.4-.36.3-.25.39-.6.7-.18.16-.41.24-.6.38-.06.04-.33.36-.48.4-.65.15-1.54-.36-2.11-.53-.1-.03-1.08-.2-1.2-.31-.2-.18-.09-.8-.1-.98-.16-1.95-.4-3.9-.55-5.84-.06-.73-.24-1.04.49-1.04.64.07 1.28.1 1.91.25.84.19 1.78 1.26 2.47.74v.01Zm10.27 15.45c.1.09-.1.63-.1.8-.03.23-.04.67 0 .87 0 .13.27.15.28.28 0 .18-.33.58-.35.64-.1.27-1.37 4.05-1.48 4.3-.4.16-.6.65-.75 1.03-.24.25-.86 1.55-1.22 1.77-.15.09-.35-.05-.5-.13a3.68 3.68 0 0 1-.7-.47c-1.06-.9-2-2.07-2.69-3.27-.34-.6-.85-.65-1.24-1.13-.1-.12-.58-.37-.42-.67.04-.09.18-.08.26-.14 1.26-.91 2.48-1.9 3.75-2.8.37-.26.71-.57 1.13-.75.51-.22 1.84-.26 2.37-.3l.65-.05c.17 0 1-.03 1.03 0l-.02.02Zm-20.64.65c-.23-.28-.18-.7-.22-1.07-.2-1.8.51-3.48 2.02-4.5a4.8 4.8 0 0 1 7 1.65c.76 1.31.56 2.45.38 3.87-.02.14.04.3-.02.42-.1.18-.3.28-.42.44-.78.97-1.18 1.67-2.5 2.1-.49.17-1.02.15-1.54.23-.15.02-.29.11-.44.1-1.41-.13-3.15-1.03-3.82-2.34-.12-.24-.06-.55-.18-.8-.04-.08-.2-.04-.25-.12l-.01.01Zm5.59-4.08c-.62-.2-1.16-.35-1.79-.14a2.79 2.79 0 0 0-1.86 2.5c-.03.42 0 1 .3 1.35.17.18.26 0 .44.17.04.04-.01.12 0 .17.06.3.1.37.35.57a2.7 2.7 0 0 0 4.19-2.53c-.03-.28-.23-1.01-.54-1.2-.47-.28-.55-.13-.95-.5-.13-.12-.04-.28-.15-.4h.01ZM4.13 26.3c-.14.01-.29.03-.41-.03-.06-.03-.03-.14-.07-.2-.38-.58-.81-1.13-1.19-1.72C1.32 22.57.36 20.7.14 18.56c-.04-.4.13-.8.11-1.19-.02-.36-.32-.28-.24-.62.05-.2.4.03.6.04.56.04 1.1 0 1.65.04.5.04 1.03-.03 1.48.19 0 0 3.45 2.51 3.78 2.8.15.12.96.8 1.04 1.25.17 1.03-1.35 1.6-2.03 2.38l-2.28 2.59c-.08.1-.08.23-.12.26Zm23.58-21c.06.06.47.72.6.77a18.77 18.77 0 0 1 3.06 6.23c.2.8.79 1.71.4 2.43-.2.35-.8.12-1.2.09-1.23-.08-2.53-.09-3.61-.81l-4.22-3.25c1.35-1.54 2.78-3 4.11-4.54.15-.18.26-.4.4-.58.12-.15.33-.49.46-.35ZM.01 14.82c-.07-.08.29-1.69.25-1.98.52-1.9 1.2-3.8 2.27-5.48.35-.56.77-1.06 1.17-1.58 0 0 .39-.45.49-.37.26.21.37.57.59.82C5.73 7.3 6.75 8.3 7.7 9.36c.24.27.4.6.65.87.19.2.74.44.54.64-.15.15-.37.2-.54.33-1.48 1.08-2.9 2.23-4.4 3.27-.9.2-2 .27-2.9.34-.34.02-.82.27-1.03 0Z"/></symbol>
<symbol id="game-dota2" viewBox="0 0 32 32"><path fill="#262324" d="M0 0h32v32H0z"/><path fill-rule="evenodd" fill="#bf0000" d="M0 0h32v32H0V0Zm5.7 19.53 6.82 6.39-5.4 1.67-3.75-2.66 2.33-5.4ZM6 5.02l-3 .9 19.03 20.76h4.72l1.5-6.08L6 5.02Zm19.18 6.46.9-4.8-2.1-1.36-5.17 1.37 6.37 4.79Z"/></symbol>

<symbol id="ki-class" viewBox="0 0 16 16" fill="#E37933"><path d="M13.2 10.5a1 1 0 0 0-1.4 0l-.5.5H9V7h1.36a1 1 0 0 0 .14 1.2l.8.8a1 1 0 0 0 1.4 0L14 7.7a1 1 0 0 0 0-1.4l-.8-.8a1 1 0 0 0-1.4 0l-.5.5H6.7l.8-.8a1 1 0 0 0 0-1.4L6.2 2.5a1 1 0 0 0-1.4 0L1.5 5.8a1 1 0 0 0 0 1.4l1.3 1.3a1 1 0 0 0 1.4 0L5.7 7H8v4.5a.5.5 0 0 0 .5.5h1.86a1 1 0 0 0 .14 1.2l.8.8a1 1 0 0 0 1.4 0l1.3-1.3a1 1 0 0 0 0-1.4zM3.5 7.8 2.2 6.5l3.3-3.3 1.3 1.3zm9.8-.8L12 8.3l-.8-.8 1.3-1.3zM12 13.3l-.8-.8 1.3-1.3.8.8z"/></symbol>
<symbol id="ki-enum-member" viewBox="0 0 16 16" fill="#D4AA32"><path d="M15 3.5v4q0 .62-.44 1.06A1.5 1.5 0 0 1 13.5 9H11v-.5q0-.26-.05-.5h2.55q.2 0 .35-.15T14 7.5v-4a.5.5 0 0 0-.15-.35.5.5 0 0 0-.35-.15h-6a.5.5 0 0 0-.35.15.5.5 0 0 0-.15.35V6H6V3.5A1.5 1.5 0 0 1 7.5 2h6A1.5 1.5 0 0 1 15 3.5M12.5 5a.5.5 0 0 0 0-1h-4a.5.5 0 0 0 0 1zm.5 1.5a.5.5 0 0 0-.5-.5h-4c.82 0 1.54.39 2 1h2a.5.5 0 0 0 .5-.5M7.5 10h-4a.5.5 0 0 0 0 1h4a.5.5 0 0 0 0-1M10 8.5v4c0 .83-.67 1.5-1.5 1.5h-6A1.5 1.5 0 0 1 1 12.5v-4C1 7.67 1.67 7 2.5 7h6c.83 0 1.5.67 1.5 1.5"/></symbol>
<symbol id="ki-enum" viewBox="0 0 16 16" fill="#D4AA32"><path d="M15 3.5v4q0 .62-.44 1.06A1.5 1.5 0 0 1 13.5 9H11v-.5q0-.26-.05-.5h2.55q.2 0 .35-.15T14 7.5v-4a.5.5 0 0 0-.15-.35.5.5 0 0 0-.35-.15h-6a.5.5 0 0 0-.35.15.5.5 0 0 0-.15.35V6H6V3.5A1.5 1.5 0 0 1 7.5 2h6A1.5 1.5 0 0 1 15 3.5M12.5 5a.5.5 0 0 0 0-1h-4a.5.5 0 0 0 0 1zm.5 1.5a.5.5 0 0 0-.5-.5h-4c.82 0 1.54.39 2 1h2a.5.5 0 0 0 .5-.5M7.5 9h-4a.5.5 0 0 0 0 1h4a.5.5 0 0 0 0-1m0 2h-4a.5.5 0 0 0 0 1h4a.5.5 0 0 0 0-1M10 8.5v4c0 .83-.67 1.5-1.5 1.5h-6A1.5 1.5 0 0 1 1 12.5v-4C1 7.67 1.67 7 2.5 7h6c.83 0 1.5.67 1.5 1.5m-1 0a.5.5 0 0 0-.5-.5h-6a.5.5 0 0 0-.5.5v4c0 .28.23.5.5.5h6a.5.5 0 0 0 .5-.5z"/></symbol>
<symbol id="ki-field" viewBox="0 0 16 16" fill="#75BEFF"><path d="m11.97 6.09.03.2-.04.18-.11.16-.17.1L7.5 8.35v1.68a.5.5 0 0 1-1 0V8.34l-2.18-.83a.5.5 0 0 1 .36-.97L7 7.46l4.32-1.66a.5.5 0 0 1 .65.29M15 5.8v3.63a1.5 1.5 0 0 1-.27.85 1.5 1.5 0 0 1-.7.55l-6.5 2.5a1.5 1.5 0 0 1-1.07 0l-4.5-1.73a1.5 1.5 0 0 1-.7-.55A1.5 1.5 0 0 1 1 10.2V6.57a1.5 1.5 0 0 1 .27-.85 1.5 1.5 0 0 1 .7-.55l6.5-2.5a1.5 1.5 0 0 1 1.07 0l4.5 1.73a1.5 1.5 0 0 1 .7.55q.25.39.26.85m-1 0a.5.5 0 0 0-.09-.28.5.5 0 0 0-.23-.19L9.18 3.6a.5.5 0 0 0-.36 0l-6.5 2.5a.5.5 0 0 0-.32.47v3.63a.5.5 0 0 0 .32.47l4.5 1.73a.5.5 0 0 0 .36 0l6.5-2.5a.5.5 0 0 0 .32-.47z"/></symbol>
<symbol id="ki-github" viewBox="0 0 16 16" fill="currentColor"><path d="M6.766 11.695C4.703 11.437 3.25 9.904 3.25 7.92c0-.806.281-1.677.75-2.258-.203-.532-.172-1.662.062-2.129.626-.081 1.469.258 1.969.726.594-.194 1.219-.291 1.985-.291.765 0 1.39.097 1.953.274.484-.451 1.343-.79 1.969-.709.218.435.25 1.564.046 2.113.5.613.766 1.436.766 2.274 0 1.984-1.453 3.485-3.547 3.759.531.355.891 1.129.891 2.016v1.678c0 .484.39.758.859.564C13.781 14.824 16 11.905 16 8.291 16 3.726 12.406 0 7.984 0 3.562 0 0 3.726 0 8.291c0 3.581 2.203 6.55 5.172 7.663A.595.595 0 0 0 6 15.389v-1.291c-.219.097-.5.162-.75.162-1.031 0-1.641-.581-2.078-1.662-.172-.435-.36-.693-.719-.742-.187-.016-.25-.097-.25-.193 0-.194.313-.339.625-.339.453 0 .844.29 1.25.887.313.468.641.678 1.031.678.391 0 .641-.146 1-.516.266-.275.469-.517.657-.678Z"/></symbol>
<symbol id="ki-inherited-class" viewBox="0 0 16 16" fill="#E37933"><path d="M13 6h-1.24l-2.8 4H9a1 1 0 0 1 1 1v3a1 1 0 0 1-1 1H6a1 1 0 0 1-1-1v-3a1 1 0 0 1 1-1h.04l-2.8-4H2a1 1 0 0 1-1-1V2a1 1 0 0 1 1-1h3a1 1 0 0 1 1 1v3a1 1 0 0 1-1 1h-.54l2.8 4h.48l2.8-4H10a1 1 0 0 1-1-1V2a1 1 0 0 1 1-1h3a1 1 0 0 1 1 1v3a1 1 0 0 1-1 1M5 2H2v3h3zm1 12h3v-3H6zm7-12h-3v3h3z"/></symbol>
<symbol id="ki-meta-broadcast" viewBox="0 0 16 16" fill="#4EC9B0"><path d="M5.53 5.52a3.5 3.5 0 0 0 0 4.96.5.5 0 0 1-.71.7 4.47 4.47 0 0 1 0-6.36.5.5 0 0 1 .7.7m5.65-.7a.5.5 0 0 0-.7.7 3.5 3.5 0 0 1 0 4.96.5.5 0 0 0 .7.7 4.47 4.47 0 0 0 0-6.36M3.76 3.75a.5.5 0 0 0-.71-.7 7 7 0 0 0 0 9.9.5.5 0 1 0 .7-.7 6 6 0 0 1 0-8.5m9.2-.7a.5.5 0 0 0-.72.7 6 6 0 0 1 0 8.5.5.5 0 0 0 .71.7 7 7 0 0 0 0-9.9M8 7a1 1 0 1 0 0 2 1 1 0 0 0 0-2"/></symbol>
<symbol id="ki-meta-default" viewBox="0 0 16 16" fill="currentColor"><path d="M10 8a2 2 0 1 1-4 0 2 2 0 0 1 4 0"/></symbol>
<symbol id="ki-meta-discard" viewBox="0 0 16 16" fill="#F14C4C"><path d="M14 2h-4a2 2 0 0 0-4 0H2a.5.5 0 0 0 0 1h.54l.8 9.7A2.54 2.54 0 0 0 5.85 15h4.32c1.29 0 2.38-1 2.49-2.3l.8-9.7H14a.5.5 0 0 0 0-1M8 1a1 1 0 0 1 1 1H7a1 1 0 0 1 1-1m3.65 11.63A1.5 1.5 0 0 1 10.16 14H5.84a1.5 1.5 0 0 1-1.5-1.37L3.55 3h8.92zM7 5.5v6a.5.5 0 0 1-1 0v-6a.5.5 0 0 1 1 0m3 0v6a.5.5 0 0 1-1 0v-6a.5.5 0 0 1 1 0"/></symbol>
<symbol id="ki-meta-eye-closed" viewBox="0 0 16 16" fill="#808080"><path d="m10.12 10.83 4.03 4.02a.5.5 0 0 0 .7-.7l-13-13a.5.5 0 1 0-.7.7l3.23 3.23q-.72.52-1.18 1.1a7 7 0 0 0-1.12 1.99l-.05.14-.01.06s-.08.5.35.61a.5.5 0 0 0 .61-.35L3 8.6a3 3 0 0 1 .2-.52c.16-.34.4-.8.78-1.26q.44-.55 1.13-1.02l1.57 1.58a2.5 2.5 0 1 0 3.45 3.45m-.74-.74a1.5 1.5 0 1 1-1.97-1.97zm-3.06-5.9.85.86Q7.57 5 8 5c2.04 0 3.29.91 4.03 1.82A6 6 0 0 1 13 8.6v.02a.5.5 0 0 0 .97-.25v-.02l-.06-.18-.2-.5a7 7 0 0 0-.92-1.49A6 6 0 0 0 8 4a7 7 0 0 0-1.68.2"/></symbol>
<symbol id="ki-meta-folder" viewBox="0 0 16 16" fill="#E8AB53"><path d="M2 4.5V6h3.59a.5.5 0 0 0 .35-.15L7.29 4.5 5.94 3.15A.5.5 0 0 0 5.59 3H3.5C2.67 3 2 3.67 2 4.5m-1 0A2.5 2.5 0 0 1 3.5 2h2.09c.4 0 .78.16 1.06.44L8.2 4h4.29A2.5 2.5 0 0 1 15 6.5v5a2.5 2.5 0 0 1-2.5 2.5h-9A2.5 2.5 0 0 1 1 11.5zM2 7v4.5c0 .83.67 1.5 1.5 1.5h9c.83 0 1.5-.67 1.5-1.5v-5c0-.83-.67-1.5-1.5-1.5H8.2L6.66 6.56A1.5 1.5 0 0 1 5.59 7z"/></symbol>
<symbol id="ki-meta-note" viewBox="0 0 16 16" fill="#9CDCFE"><path d="M4.5 2A2.5 2.5 0 0 0 2 4.5v7A2.5 2.5 0 0 0 4.5 14h3.67c.66 0 1.3-.26 1.77-.73l3.33-3.33c.47-.47.73-1.1.73-1.77V4.5A2.5 2.5 0 0 0 11.5 2zM3 4.5C3 3.67 3.67 3 4.5 3h7c.83 0 1.5.67 1.5 1.5V8h-2.5A2.5 2.5 0 0 0 8 10.5V13H4.5A1.5 1.5 0 0 1 3 11.5zm6 8.25V10.5c0-.83.67-1.5 1.5-1.5h2.25l-.19.23-3.33 3.33z"/></symbol>
<symbol id="ki-meta-tag" viewBox="0 0 16 16" fill="#C586C0"><path d="M11 6a1 1 0 1 1 0-2 1 1 0 0 1 0 2m-8.41 4.14a2 2 0 0 1 0-2.83L7.33 2.6c.37-.37.88-.58 1.4-.59L12 2a2 2 0 0 1 2 2l-.02 3.37c0 .53-.22 1.03-.6 1.4l-4.66 4.65c-.78.77-2.05.77-2.84 0zm.7-2.12a1 1 0 0 0 0 1.41l3.3 3.28a1 1 0 0 0 1.42 0l4.67-4.65a1 1 0 0 0 .3-.7L13 4a1 1 0 0 0-1-1H8.73a1 1 0 0 0-.7.3z"/></symbol>
<symbol id="ki-meta-variable" viewBox="0 0 16 16" fill="#DCDCAA"><path d="M11.28 5.79 8.8 5.07a1 1 0 0 0-.63.02L4.65 6.41a1 1 0 0 0-.65.94v1.79a1 1 0 0 0 .68.95l2.49.82a1 1 0 0 0 .69-.02l3.52-1.43a1 1 0 0 0 .62-.92V6.75a1 1 0 0 0-.72-.96M11 8.54 7.48 9.97 5 9.14v-1.8l3.52-1.31 2.48.72zM7.48 7.47l1.33-.56a.5.5 0 0 1 .65.27.5.5 0 0 1-.27.66l-1.2.5v.29a.5.5 0 0 1-1 0v-.27l-.4-.14a.5.5 0 1 1 .32-.94z"/><path d="M12.5 14h-1a.5.5 0 0 1 0-1h1a.5.5 0 0 0 .5-.5v-9a.5.5 0 0 0-.5-.5h-1a.5.5 0 0 1 0-1h1c.83 0 1.5.67 1.5 1.5v9c0 .83-.67 1.5-1.5 1.5M5 13.5a.5.5 0 0 0-.5-.5h-1a.5.5 0 0 1-.5-.5v-9c0-.27.22-.5.5-.5h1a.5.5 0 0 0 0-1h-1C2.67 2 2 2.67 2 3.5v9c0 .83.67 1.5 1.5 1.5h1a.5.5 0 0 0 .5-.5"/></symbol>
<symbol id="ki-module" viewBox="0 0 16 16" fill="#B180D7"><path d="M5 2C3.89543 2 3 2.89543 3 4V6.00469C3 6.53494 2.99231 6.79889 2.91088 7.00209C2.84826 7.15835 2.71576 7.33309 2.2764 7.55276C2.10701 7.63745 2 7.81058 2 7.99997C2 8.18935 2.10699 8.36249 2.27638 8.44719C2.71569 8.66685 2.84809 8.84151 2.91076 8.99819C2.99233 9.20211 3 9.46732 3 10L3 12C3 13.1046 3.89543 14 5 14C5.27614 14 5.5 13.7761 5.5 13.5C5.5 13.2239 5.27614 13 5 13C4.44772 13 4 12.5523 4 12L4.00003 9.94145C4.00033 9.49235 4.00065 9.03033 3.83924 8.6268C3.74212 8.384 3.59654 8.17962 3.40072 8.00002C3.59646 7.82057 3.74199 7.61645 3.83912 7.37408C4.00065 6.971 4.00033 6.51001 4.00003 6.063L4 4C4 3.44772 4.44772 3 5 3C5.27614 3 5.5 2.77614 5.5 2.5C5.5 2.22386 5.27614 2 5 2ZM11 2C12.1046 2 13 2.89543 13 4V6.00469C13 6.53494 13.0077 6.79889 13.0891 7.00209C13.1517 7.15835 13.2842 7.33309 13.7236 7.55276C13.893 7.63745 14 7.81058 14 7.99997C14 8.18935 13.893 8.36249 13.7236 8.44719C13.2843 8.66685 13.1519 8.84151 13.0892 8.99819C13.0077 9.20211 13 9.46732 13 10V12C13 13.1046 12.1046 14 11 14C10.7239 14 10.5 13.7761 10.5 13.5C10.5 13.2239 10.7239 13 11 13C11.5523 13 12 12.5523 12 12L12 9.94145C11.9997 9.49235 11.9994 9.03033 12.1608 8.6268C12.2579 8.384 12.4035 8.17962 12.5993 8.00002C12.4035 7.82057 12.258 7.61645 12.1609 7.37408C11.9993 6.971 11.9997 6.51001 12 6.063L12 4C12 3.44772 11.5523 3 11 3C10.7239 3 10.5 2.77614 10.5 2.5C10.5 2.22386 10.7239 2 11 2Z"/></symbol>
</defs>
</svg>
